<?xml version="1.0" encoding="UTF-8" standalone="no"?>
<!-- Created with Inkscape (http://www.inkscape.org/) -->

<svg
	xmlns="http://www.w3.org/2000/svg"
	width="16"
	height="16"
	viewBox="0 0 8.4666659 8.4666659"
	version="1.1"
	id="svg8">
	<defs
		id="defs2">
		<radialGradient
			gradientTransform="matrix(309.277,0,0,309.277,296.546,398.494)"
			gradientUnits="userSpaceOnUse"
			r="1"
			cy="0"
			cx="0"
			id="_Radial1">
			<stop
				id="stop3892"
				style="stop-color:rgb(0,203,242);stop-opacity:1"
				offset="0"/>
			<stop
				id="stop3894"
				style="stop-color:rgb(83,82,217);stop-opacity:1"
				offset="0.57"/>
			<stop
				id="stop3896"
				style="stop-color:rgb(120,27,206);stop-opacity:1"
				offset="1"/>
		</radialGradient>
		<radialGradient
			gradientTransform="matrix(0.41441767,0,0,0.4097137,-0.23168154,22.723096)"
			gradientUnits="userSpaceOnUse"
			r="1"
			cy="0"
			cx="0"
			id="_Radial1-3">
			<stop
				id="stop3892-6"
				style="stop-color:rgb(0,203,242);stop-opacity:1"
				offset="0"/>
			<stop
				id="stop3894-7"
				style="stop-color:rgb(83,82,217);stop-opacity:1"
				offset="0.57"/>
			<stop
				id="stop3896-5"
				style="stop-color:rgb(120,27,206);stop-opacity:1"
				offset="1"/>
		</radialGradient>
	</defs>
	<metadata
		id="metadata5">
	</metadata>
	<g
		id="layer1"
		transform="translate(0,-288.53334)">
		<g
			id="g3813"
			transform="matrix(11.351885,0,0,11.90625,8.5863499,25.329607)">
			<g
				id="g3795"
				style="fill:none;fill-rule:evenodd">
				<g
					style="clip-rule:evenodd;fill-rule:evenodd;stroke-linejoin:round;stroke-miterlimit:1.41420996"
					id="g3913"
					transform="matrix(0.02330744,0,0,0.02222222,-16.67369,-7.6365565)"/>
				<path
					id="path3888"
					style="clip-rule:evenodd;fill:url(#_Radial1-3);fill-rule:evenodd;stroke-width:0.00133232;stroke-linejoin:round;stroke-miterlimit:1.41420996"
					d="m -0.14768224,22.639629 c 0,0 -0.1737763,0.03443 -0.28982446,-0.05503 0.006155,-0.05256 0.0324628,-0.09907 0.0710752,-0.131801 -0.001067,-0.01097 -0.001251,-0.02084 -9.0138e-4,-0.03197 0.011455,0.0016 0.0228504,0.0049 0.032797,0.0097 0.0303097,-0.01718 0.0654273,-0.027 0.1028443,-0.027 0.0376327,0 0.0729324,0.01005 0.10336552,0.0273 0.008123,-0.0046 0.0160501,-0.0078 0.0250533,-0.01092 0.002008,0.01016 0.002978,0.02057 0.003235,0.03033 0.04613203,0.0376 0.07555622,0.09449 0.07555622,0.15815 0,0.113068 -0.09284425,0.204857 -0.20720941,0.204857 -0.11435855,0 -0.20725232,-0.09183 -0.2072056,-0.204858 0.003971,0.0027 0.13086552,0.08894 0.29120597,0.03126 z m -0.18792089,0.103922 0.0265713,0.04297 c -0.0581394,-0.01744 -0.11665267,-0.09308 -0.12189579,-0.164264 0.0467254,0.02953 0.10243289,0.04525 0.15487605,0.04673 l -0.0421765,0.01337 c 0.0143322,0.0087 0.030985,0.01938 0.0460678,0.02825 -0.0217649,-7.45e-4 -0.0435313,-0.0014 -0.0652973,-0.0021 l 0.0564283,0.03782 z m 0.1257642,-0.12276 c 0,0 0.0202428,-0.03365 0.0594512,-0.02257 0,0 -0.0203646,0.03104 -0.0594512,0.02257 z m -0.0498435,0 c 0,0 -0.0202426,-0.03365 -0.0594512,-0.02257 0,0 0.0203647,0.03104 0.0594512,0.02257 z m 0.10407439,-0.155806 c 0.007689,0.01585 0.02573,0.02292 0.0405337,0.02455 0.00631,-0.01806 0.006042,-0.03778 0.003955,-0.05622 -0.0174446,0.0074 -0.0333665,0.01856 -0.0444887,0.03168 z m -0.19322174,0.02371 c 0.0105339,-0.002 0.0198193,-0.0064 0.0267698,-0.01231 0.005278,-0.0045 0.009209,-0.01005 0.0113152,-0.01601 -0.0122587,-0.01414 -0.0294361,-0.02352 -0.0468879,-0.02773 3.4965e-4,0.01983 0.002634,0.04014 0.008803,0.05605 z"/>
				<g
					id="g4110"
					transform="matrix(0.02118858,0,0,0.02230795,0.08984213,22.691823)">
					<g
						id="g4085"
						style="fill:#9aa7b0"
						transform="translate(-37.337703,-24.252713)">
						<path
							id="path4081"
							d="M 12,0 4,8 h 8 z"
							style="opacity:0.7;isolation:isolate"/>
						<path
							id="path4083"
							d="M 14,0 V 10 H 4 V 30 L 16.125929,29.883366 C 2.7892811,22.122198 12.800002,5.9769431 26,9.9615711 V 0 Z"
							style="opacity:0.7;isolation:isolate"/>
					</g>
				</g>
			</g>
		</g>
	</g>
</svg>
