<?xml version="1.0" encoding="UTF-8" standalone="no"?>
<svg
	xmlns="http://www.w3.org/2000/svg"
	width="40"
	height="40"
	viewBox="0 0 83.392 36.8"
	version="1.1"
	xml:space="preserve"
	style="clip-rule:evenodd;fill-rule:evenodd;stroke-linejoin:round;stroke-miterlimit:1.41420996"
	id="svg15">
	<path
		d="m 58.439472,24.740893 c 0,0 -35.026433,7.018368 -58.41717877,-11.218396 C 1.263051,2.8083243 6.5655768,-6.6761595 14.348268,-13.347989 c -0.21446,-2.23818 -0.253082,-4.250022 -0.180134,-6.518689 2.308935,0.333566 4.605715,0.998761 6.610532,1.978612 6.109265,-3.503499 13.187578,-5.507254 20.729359,-5.507254 7.585261,0 14.70031,2.026161 20.834415,5.566681 1.637242,-0.934238 3.235049,-1.585114 5.04973,-2.226301 0.404576,2.055053 0.600393,4.191685 0.652248,6.182173 9.298395,7.6630527 15.229131,19.2658083 15.229131,32.242419 0,23.051531 -18.713732,41.76527 -41.765255,41.76527 -23.050174,0 -41.77389749,-18.720772 -41.76444477,-41.765524 C 0.54410316,18.928206 26.121167,36.502724 58.439484,24.740387 Z M 20.56205,45.928034 25.91778,54.689538 C 14.199181,51.135246 2.4052293,35.714084 1.3483973,21.200415 10.766435,27.224319 21.994839,30.428576 32.565317,30.724869 l -8.501112,2.724292 c 2.888802,1.790392 6.245382,3.951328 9.285431,5.758988 -4.386948,-0.151621 -8.774164,-0.299873 -13.161377,-0.449683 L 31.561961,46.46633 Z M 45.911162,20.900333 c 0,0 4.080134,-6.861693 11.983013,-4.599508 0,0 -4.104714,6.328829 -11.983013,4.599508 z m -10.046521,0 c 0,0 -4.08013,-6.861693 -11.983009,-4.599508 0,0 4.104709,6.328829 11.983009,4.599508 z m 20.977292,-31.764644 c 1.55,3.2334445 5.186121,4.6713592 8.169989,5.0021878 1.271818,-3.682032 1.217803,-7.7016738 0.797282,-11.4601058 -3.51593,1.511366 -6.725319,3.785977 -8.967271,6.457918 z m -38.945865,4.8347308 c 2.123116,-0.4156942 3.994789,-1.2996026 5.395703,-2.5103807 1.063853,-0.9193708 1.856275,-2.0275091 2.280845,-3.2626311 -2.470982,-2.884463 -5.933167,-4.794215 -9.45072,-5.654159 0.06941,4.044195 0.530985,8.1826918 1.774172,11.4271708 z"
		style="fill:url(#_Radial1);stroke-width:0.27008232"
		id="path2"/>
	<defs
		id="defs13">
		<radialGradient
			id="_Radial1"
			cx="0"
			cy="0"
			r="1"
			gradientUnits="userSpaceOnUse"
			gradientTransform="matrix(83.530238,0,0,83.530238,41.508549,41.758247)">
			<stop
				offset="0"
				style="stop-color:#ff8f00;stop-opacity:1"
				id="stop6"/>
			<stop
				offset="0.57"
				style="stop-color:#f02352;stop-opacity:1"
				id="stop8"/>
			<stop
				offset="1"
				style="stop-color:rgb(120,27,206);stop-opacity:1"
				id="stop10"/>
		</radialGradient>
	</defs>
</svg>